<mxfile host="app.diagrams.net" modified="2024-03-04T09:48:08.259Z" agent="Mozilla/5.0 (Macintosh; Intel Mac OS X 10_15_7) AppleWebKit/537.36 (KHTML, like Gecko) Chrome/122.0.0.0 Safari/537.36" etag="3U2cIxNPu8Ve_3aV3qxP" version="23.1.5" type="github">
  <diagram name="Page-1" id="4zz0qb_H7faVLcS1_Wtx">
    <mxGraphModel dx="1277" dy="2022" grid="1" gridSize="10" guides="1" tooltips="1" connect="1" arrows="1" fold="1" page="1" pageScale="1" pageWidth="827" pageHeight="1169" math="0" shadow="0">
      <root>
        <mxCell id="0" />
        <mxCell id="1" parent="0" />
        <mxCell id="ArEGz1Q_ujUkaeg3Qazr-1" value="USER" style="shape=umlActor;verticalLabelPosition=bottom;verticalAlign=top;html=1;fillColor=#d5e8d4;strokeColor=#82b366;" vertex="1" parent="1">
          <mxGeometry x="50" y="270" width="40" height="60" as="geometry" />
        </mxCell>
        <mxCell id="ArEGz1Q_ujUkaeg3Qazr-2" value="consulter le site" style="ellipse;whiteSpace=wrap;html=1;" vertex="1" parent="1">
          <mxGeometry x="310" y="115" width="140" height="70" as="geometry" />
        </mxCell>
        <mxCell id="ArEGz1Q_ujUkaeg3Qazr-3" value="déclencher une alerte" style="ellipse;whiteSpace=wrap;html=1;" vertex="1" parent="1">
          <mxGeometry x="310" y="230" width="140" height="70" as="geometry" />
        </mxCell>
        <mxCell id="ArEGz1Q_ujUkaeg3Qazr-4" value="donner un avis" style="ellipse;whiteSpace=wrap;html=1;" vertex="1" parent="1">
          <mxGeometry x="310" y="350" width="140" height="70" as="geometry" />
        </mxCell>
        <mxCell id="ArEGz1Q_ujUkaeg3Qazr-5" value="pièce à conviction" style="ellipse;whiteSpace=wrap;html=1;" vertex="1" parent="1">
          <mxGeometry x="310" y="480" width="140" height="70" as="geometry" />
        </mxCell>
        <mxCell id="ArEGz1Q_ujUkaeg3Qazr-8" value="HERO" style="shape=umlActor;verticalLabelPosition=bottom;verticalAlign=top;html=1;" vertex="1" parent="1">
          <mxGeometry x="690" y="270" width="30" height="60" as="geometry" />
        </mxCell>
        <mxCell id="ArEGz1Q_ujUkaeg3Qazr-10" value="" style="html=1;verticalAlign=bottom;endArrow=block;curved=0;rounded=0;exitX=0.5;exitY=0.5;exitDx=0;exitDy=0;exitPerimeter=0;entryX=0;entryY=0.5;entryDx=0;entryDy=0;" edge="1" parent="1" source="ArEGz1Q_ujUkaeg3Qazr-1" target="ArEGz1Q_ujUkaeg3Qazr-2">
          <mxGeometry width="80" relative="1" as="geometry">
            <mxPoint x="380" y="340" as="sourcePoint" />
            <mxPoint x="460" y="340" as="targetPoint" />
          </mxGeometry>
        </mxCell>
        <mxCell id="ArEGz1Q_ujUkaeg3Qazr-11" value="" style="html=1;verticalAlign=bottom;startArrow=oval;startFill=1;endArrow=block;startSize=8;curved=0;rounded=0;exitX=0.5;exitY=0.5;exitDx=0;exitDy=0;exitPerimeter=0;entryX=1;entryY=0.5;entryDx=0;entryDy=0;" edge="1" parent="1" source="ArEGz1Q_ujUkaeg3Qazr-8" target="ArEGz1Q_ujUkaeg3Qazr-2">
          <mxGeometry x="-0.003" width="60" relative="1" as="geometry">
            <mxPoint x="390" y="340" as="sourcePoint" />
            <mxPoint x="450" y="340" as="targetPoint" />
            <mxPoint as="offset" />
          </mxGeometry>
        </mxCell>
        <mxCell id="ArEGz1Q_ujUkaeg3Qazr-12" value="" style="html=1;verticalAlign=bottom;startArrow=oval;startFill=1;endArrow=block;startSize=8;curved=0;rounded=0;exitX=0.5;exitY=0.5;exitDx=0;exitDy=0;exitPerimeter=0;entryX=0;entryY=0.5;entryDx=0;entryDy=0;" edge="1" parent="1" source="ArEGz1Q_ujUkaeg3Qazr-1" target="ArEGz1Q_ujUkaeg3Qazr-3">
          <mxGeometry width="60" relative="1" as="geometry">
            <mxPoint x="390" y="350" as="sourcePoint" />
            <mxPoint x="450" y="350" as="targetPoint" />
          </mxGeometry>
        </mxCell>
        <mxCell id="ArEGz1Q_ujUkaeg3Qazr-13" value="" style="html=1;verticalAlign=bottom;startArrow=oval;startFill=1;endArrow=block;startSize=8;curved=0;rounded=0;exitX=0.5;exitY=0.5;exitDx=0;exitDy=0;exitPerimeter=0;entryX=1;entryY=0.5;entryDx=0;entryDy=0;" edge="1" parent="1" source="ArEGz1Q_ujUkaeg3Qazr-8" target="ArEGz1Q_ujUkaeg3Qazr-3">
          <mxGeometry width="60" relative="1" as="geometry">
            <mxPoint x="390" y="350" as="sourcePoint" />
            <mxPoint x="450" y="350" as="targetPoint" />
          </mxGeometry>
        </mxCell>
        <mxCell id="ArEGz1Q_ujUkaeg3Qazr-14" value="" style="endArrow=block;dashed=1;endFill=0;endSize=12;html=1;rounded=0;exitX=0.5;exitY=1;exitDx=0;exitDy=0;entryX=0.5;entryY=0;entryDx=0;entryDy=0;" edge="1" parent="1" source="ArEGz1Q_ujUkaeg3Qazr-3" target="ArEGz1Q_ujUkaeg3Qazr-4">
          <mxGeometry width="160" relative="1" as="geometry">
            <mxPoint x="340" y="350" as="sourcePoint" />
            <mxPoint x="500" y="350" as="targetPoint" />
          </mxGeometry>
        </mxCell>
        <mxCell id="ArEGz1Q_ujUkaeg3Qazr-15" value="" style="endArrow=block;dashed=1;endFill=0;endSize=12;html=1;rounded=0;exitX=0.5;exitY=1;exitDx=0;exitDy=0;entryX=0.5;entryY=0;entryDx=0;entryDy=0;" edge="1" parent="1" source="ArEGz1Q_ujUkaeg3Qazr-4" target="ArEGz1Q_ujUkaeg3Qazr-5">
          <mxGeometry width="160" relative="1" as="geometry">
            <mxPoint x="340" y="350" as="sourcePoint" />
            <mxPoint x="500" y="350" as="targetPoint" />
            <Array as="points" />
          </mxGeometry>
        </mxCell>
        <mxCell id="ArEGz1Q_ujUkaeg3Qazr-16" value="ADMIN" style="shape=umlActor;verticalLabelPosition=bottom;verticalAlign=top;html=1;" vertex="1" parent="1">
          <mxGeometry x="640" width="30" height="60" as="geometry" />
        </mxCell>
        <mxCell id="ArEGz1Q_ujUkaeg3Qazr-21" value="&lt;div&gt;&lt;br/&gt;&lt;/div&gt;" style="html=1;verticalAlign=bottom;startArrow=oval;startFill=1;endArrow=block;startSize=8;curved=0;rounded=0;exitX=0.5;exitY=0.5;exitDx=0;exitDy=0;exitPerimeter=0;entryX=1;entryY=0;entryDx=0;entryDy=0;" edge="1" parent="1" source="ArEGz1Q_ujUkaeg3Qazr-16" target="ArEGz1Q_ujUkaeg3Qazr-2">
          <mxGeometry width="60" relative="1" as="geometry">
            <mxPoint x="620" y="200" as="sourcePoint" />
            <mxPoint x="680" y="200" as="targetPoint" />
          </mxGeometry>
        </mxCell>
        <mxCell id="ArEGz1Q_ujUkaeg3Qazr-22" value="Gestion du site" style="ellipse;whiteSpace=wrap;html=1;" vertex="1" parent="1">
          <mxGeometry x="840" y="115" width="140" height="70" as="geometry" />
        </mxCell>
        <mxCell id="ArEGz1Q_ujUkaeg3Qazr-23" value="" style="html=1;verticalAlign=bottom;startArrow=oval;startFill=1;endArrow=block;startSize=8;curved=0;rounded=0;exitX=0.5;exitY=0.5;exitDx=0;exitDy=0;exitPerimeter=0;entryX=0;entryY=0;entryDx=0;entryDy=0;" edge="1" parent="1" source="ArEGz1Q_ujUkaeg3Qazr-16" target="ArEGz1Q_ujUkaeg3Qazr-22">
          <mxGeometry width="60" relative="1" as="geometry">
            <mxPoint x="770" y="200" as="sourcePoint" />
            <mxPoint x="830" y="200" as="targetPoint" />
          </mxGeometry>
        </mxCell>
        <mxCell id="ArEGz1Q_ujUkaeg3Qazr-24" value="Gestion des Vilains" style="ellipse;whiteSpace=wrap;html=1;" vertex="1" parent="1">
          <mxGeometry x="840" y="-60" width="140" height="70" as="geometry" />
        </mxCell>
        <mxCell id="ArEGz1Q_ujUkaeg3Qazr-25" value="Gestion des Heros" style="ellipse;whiteSpace=wrap;html=1;" vertex="1" parent="1">
          <mxGeometry x="840" y="-220" width="140" height="70" as="geometry" />
        </mxCell>
        <mxCell id="ArEGz1Q_ujUkaeg3Qazr-26" value="Gestion des alertes" style="ellipse;whiteSpace=wrap;html=1;" vertex="1" parent="1">
          <mxGeometry x="540" y="-220" width="140" height="70" as="geometry" />
        </mxCell>
        <mxCell id="ArEGz1Q_ujUkaeg3Qazr-27" value="" style="html=1;verticalAlign=bottom;startArrow=oval;startFill=1;endArrow=block;startSize=8;curved=0;rounded=0;entryX=0;entryY=0.5;entryDx=0;entryDy=0;exitX=0.5;exitY=0.5;exitDx=0;exitDy=0;exitPerimeter=0;" edge="1" parent="1" source="ArEGz1Q_ujUkaeg3Qazr-16" target="ArEGz1Q_ujUkaeg3Qazr-24">
          <mxGeometry x="0.0002" width="60" relative="1" as="geometry">
            <mxPoint x="710" y="-60" as="sourcePoint" />
            <mxPoint x="710" y="-100" as="targetPoint" />
            <mxPoint as="offset" />
          </mxGeometry>
        </mxCell>
        <mxCell id="ArEGz1Q_ujUkaeg3Qazr-28" value="" style="html=1;verticalAlign=bottom;startArrow=oval;startFill=1;endArrow=block;startSize=8;curved=0;rounded=0;exitX=0.5;exitY=0.5;exitDx=0;exitDy=0;exitPerimeter=0;entryX=0;entryY=1;entryDx=0;entryDy=0;" edge="1" parent="1" source="ArEGz1Q_ujUkaeg3Qazr-16" target="ArEGz1Q_ujUkaeg3Qazr-25">
          <mxGeometry width="60" relative="1" as="geometry">
            <mxPoint x="650" y="-130" as="sourcePoint" />
            <mxPoint x="710" y="-130" as="targetPoint" />
            <Array as="points">
              <mxPoint x="750" />
            </Array>
          </mxGeometry>
        </mxCell>
        <mxCell id="ArEGz1Q_ujUkaeg3Qazr-29" value="" style="html=1;verticalAlign=bottom;startArrow=oval;startFill=1;endArrow=block;startSize=8;curved=0;rounded=0;exitX=0.5;exitY=0.5;exitDx=0;exitDy=0;exitPerimeter=0;entryX=0.5;entryY=1;entryDx=0;entryDy=0;" edge="1" parent="1" source="ArEGz1Q_ujUkaeg3Qazr-16" target="ArEGz1Q_ujUkaeg3Qazr-26">
          <mxGeometry width="60" relative="1" as="geometry">
            <mxPoint x="610" as="sourcePoint" />
            <mxPoint x="670" as="targetPoint" />
            <Array as="points">
              <mxPoint x="610" y="20" />
            </Array>
          </mxGeometry>
        </mxCell>
        <mxCell id="ArEGz1Q_ujUkaeg3Qazr-30" value="Gestion des Users" style="ellipse;whiteSpace=wrap;html=1;" vertex="1" parent="1">
          <mxGeometry x="310" y="-60" width="140" height="70" as="geometry" />
        </mxCell>
        <mxCell id="ArEGz1Q_ujUkaeg3Qazr-31" value="" style="html=1;verticalAlign=bottom;startArrow=oval;startFill=1;endArrow=block;startSize=8;curved=0;rounded=0;exitX=0.5;exitY=0.5;exitDx=0;exitDy=0;exitPerimeter=0;entryX=1;entryY=0.5;entryDx=0;entryDy=0;" edge="1" parent="1" source="ArEGz1Q_ujUkaeg3Qazr-16" target="ArEGz1Q_ujUkaeg3Qazr-30">
          <mxGeometry width="60" relative="1" as="geometry">
            <mxPoint x="734.9999999999999" as="sourcePoint" />
            <mxPoint x="460" y="-20" as="targetPoint" />
          </mxGeometry>
        </mxCell>
      </root>
    </mxGraphModel>
  </diagram>
</mxfile>
